<?xml version="1.0" standalone="no"?>
<!DOCTYPE svg PUBLIC "-//W3C//DTD SVG 20010904//EN"
 "http://www.w3.org/TR/2001/REC-SVG-20010904/DTD/svg10.dtd">
<svg version="1.0" xmlns="http://www.w3.org/2000/svg"
 width="64.000000pt" height="56.000000pt" viewBox="0 0 64.000000 56.000000"
 preserveAspectRatio="xMidYMid meet">
<metadata>
Created by potrace 1.16, written by Peter Selinger 2001-2019
</metadata>
<g transform="translate(0.000000,56.000000) scale(0.017778,-0.017778)"
fill="#000000" stroke="none">
<path d="M1413 3139 c-58 -17 -58 -18 -58 -439 0 -449 -3 -434 87 -445 29 -3
212 -5 406 -3 l354 3 24 29 25 28 -3 394 -3 393 -23 23 -23 23 -377 2 c-218 1
-391 -2 -409 -8z"/>
<path d="M383 2690 c-131 -15 -265 -115 -330 -248 l-38 -76 -8 -375 c-9 -468
1 -1601 15 -1656 30 -117 128 -232 245 -288 l68 -32 215 -6 c276 -7 2228 -7
2510 0 l216 6 64 32 c84 41 172 129 213 213 29 58 33 77 38 185 4 66 6 520 5
1010 l-2 890 -23 58 c-48 122 -146 220 -269 268 -55 22 -70 23 -439 27 l-383
4 0 -226 0 -225 310 -3 c307 -3 310 -3 332 -26 l23 -23 0 -850 0 -851 -22 -18
c-17 -14 -49 -20 -125 -25 -57 -4 -638 -5 -1293 -3 -943 2 -1195 6 -1212 16
-13 7 -26 25 -30 40 -5 15 -8 398 -8 852 0 646 3 830 13 847 21 37 72 43 375
43 l287 0 0 225 0 225 -342 -1 c-189 -1 -371 -5 -405 -9z"/>
<path d="M1299 2019 c-96 -14 -200 -92 -250 -189 -22 -41 -24 -57 -24 -190 0
-140 1 -147 30 -210 16 -36 49 -89 73 -118 24 -30 42 -55 40 -56 -2 -2 -46
-13 -100 -25 -181 -41 -337 -140 -374 -236 -12 -32 -15 -66 -13 -127 3 -72 8
-88 29 -114 61 -74 12 -69 636 -72 l560 -2 34 22 c70 48 98 122 84 230 -15
127 -119 218 -319 281 -44 14 -101 28 -126 32 l-47 7 47 61 c85 112 118 227
109 379 -12 209 -187 357 -389 327z"/>
<path d="M2302 2004 c-26 -18 -52 -65 -52 -94 0 -35 31 -78 68 -96 29 -13 71
-15 289 -12 l255 3 29 33 c41 46 41 111 0 153 l-29 29 -269 0 c-227 0 -272 -2
-291 -16z"/>
<path d="M2290 1543 c-22 -20 -33 -40 -37 -69 -5 -37 -2 -46 30 -80 l35 -39
272 0 272 0 29 33 c41 46 41 111 0 153 l-29 29 -271 0 -271 0 -30 -27z"/>
<path d="M2290 1093 c-22 -20 -33 -40 -37 -69 -5 -38 -2 -46 30 -80 l36 -39
271 0 272 0 29 33 c41 46 41 111 0 153 l-29 29 -271 0 -271 0 -30 -27z"/>
</g>
</svg>
